<?xml version="1.0" encoding="utf-8"?>
<svg version="1.1" id="Layer_1" xmlns="http://www.w3.org/2000/svg" xmlns:xlink="http://www.w3.org/1999/xlink" x="0px" y="0px"
     viewBox="0 0 161.1 61.2" style="enable-background:new 0 0 161.1 61.2;" xml:space="preserve">
<style type="text/css">
    .st0{enable-background:new    ;}
    .st1{clip-path:url(#SVGID_2_);enable-background:new    ;}
    .st2{fill:#BE06B5;}
    .st3{fill:#B905B0;}
    .st4{fill:#B405AC;}
    .st5{fill:#AF05A7;}
    .st6{fill:#AB05A3;}
    .st7{fill:#A6059E;}
    .st8{fill:#A1059A;}
    .st9{fill:#9C0595;}
    .st10{fill:#980491;}
    .st11{fill:#93048C;}
    .st12{fill:#8E0488;}
    .st13{fill:#890483;}
    .st14{fill:#85047F;}
    .st15{fill:#80047A;}
    .st16{fill:#7B0476;}
    .st17{fill:#7F0479;}
    .st18{clip-path:url(#SVGID_4_);enable-background:new    ;}
    .st19{fill:#CC06C2;}
    .st20{clip-path:url(#SVGID_6_);enable-background:new    ;}
    .st21{fill:#00CCCC;}
    .st22{fill:#00C7C7;}
    .st23{fill:#00C2C2;}
    .st24{fill:#00BDBD;}
    .st25{fill:#00B8B8;}
    .st26{fill:#00B3B3;}
    .st27{fill:#00ADAD;}
    .st28{fill:#00A8A8;}
    .st29{fill:#00A3A3;}
    .st30{fill:#009E9E;}
    .st31{clip-path:url(#SVGID_8_);enable-background:new    ;}
    .st32{clip-path:url(#SVGID_10_);enable-background:new    ;}
    .st33{fill:#00DBDB;}
    .st34{clip-path:url(#SVGID_12_);enable-background:new    ;}
    .st35{fill:#008585;}
    .st36{clip-path:url(#SVGID_14_);enable-background:new    ;}
    .st37{clip-path:url(#SVGID_16_);enable-background:new    ;}
    .st38{clip-path:url(#SVGID_18_);enable-background:new    ;}
    .st39{clip-path:url(#SVGID_20_);enable-background:new    ;}
    .st40{fill:#009999;}
    .st41{fill:#009494;}
    .st42{fill:#008F8F;}
    .st43{fill:#008A8A;}
    .st44{clip-path:url(#SVGID_22_);enable-background:new    ;}
    .st45{clip-path:url(#SVGID_24_);enable-background:new    ;}
    .st46{clip-path:url(#SVGID_26_);enable-background:new    ;}
    .st47{fill:#008888;}
    .st48{fill:#A4059C;}
    .st49{clip-path:url(#SVGID_28_);enable-background:new    ;}
    .st50{clip-path:url(#SVGID_30_);enable-background:new    ;}
    .st51{clip-path:url(#SVGID_32_);enable-background:new    ;}
    .st52{fill:#BF06B6;}
    .st53{clip-path:url(#SVGID_34_);enable-background:new    ;}
    .st54{fill:#A2059B;}
    .st55{clip-path:url(#SVGID_36_);enable-background:new    ;}
    .st56{clip-path:url(#SVGID_38_);enable-background:new    ;}
    .st57{clip-path:url(#SVGID_40_);enable-background:new    ;}
    .st58{clip-path:url(#SVGID_42_);enable-background:new    ;}
    .st59{fill:#770471;}
    .st60{clip-path:url(#SVGID_44_);enable-background:new    ;}
    .st61{clip-path:url(#SVGID_46_);enable-background:new    ;}
    .st62{clip-path:url(#SVGID_48_);enable-background:new    ;}
    .st63{clip-path:url(#SVGID_50_);enable-background:new    ;}
    .st64{clip-path:url(#SVGID_52_);enable-background:new    ;}
    .st65{clip-path:url(#SVGID_54_);enable-background:new    ;}
    .st66{fill:#00C5C5;}
    .st67{clip-path:url(#SVGID_56_);enable-background:new    ;}
    .st68{fill:#B705AF;}
</style>
<g>
    <g>
        <g class="st0">
            <g class="st0">
                <defs>
                    <path id="SVGID_1_" class="st0" d="M40.9,42.3l-7-4.1c2.6-1.5,4.6-5.3,4.6-8.5l7,4.1C45.5,37,43.5,40.8,40.9,42.3z"/>
                </defs>
                <clipPath id="SVGID_2_">
                    <use xlink:href="#SVGID_1_"  style="overflow:visible;"/>
                </clipPath>
                <g class="st1">
                    <path class="st2" d="M40.9,42.3l-7-4.1c0.5-0.3,1-0.7,1.4-1.1l7,4.1C41.9,41.6,41.4,42,40.9,42.3"/>
                    <path class="st3" d="M42.3,41.1l-7-4.1c0.2-0.2,0.3-0.3,0.5-0.5l7,4.1C42.7,40.8,42.5,41,42.3,41.1"/>
                    <path class="st4" d="M42.8,40.6l-7-4.1c0.1-0.1,0.2-0.3,0.4-0.4l7,4.1C43.1,40.3,42.9,40.5,42.8,40.6"/>
                    <path class="st5" d="M43.2,40.2l-7-4.1c0.1-0.1,0.2-0.3,0.3-0.4l7,4.1C43.4,39.9,43.3,40.1,43.2,40.2"/>
                    <path class="st6" d="M43.5,39.8l-7-4.1c0.1-0.1,0.2-0.3,0.3-0.4l7,4.1C43.7,39.5,43.6,39.6,43.5,39.8"/>
                    <path class="st7" d="M43.8,39.4l-7-4.1c0.1-0.1,0.2-0.3,0.2-0.4l7,4.1C43.9,39.1,43.9,39.2,43.8,39.4"/>
                    <path class="st8" d="M44,39l-7-4.1c0.1-0.1,0.2-0.3,0.2-0.4l7,4.1C44.2,38.7,44.1,38.8,44,39"/>
                    <path class="st9" d="M44.2,38.5l-7-4.1c0.1-0.1,0.1-0.3,0.2-0.4l7,4.1C44.4,38.3,44.3,38.4,44.2,38.5"/>
                    <path class="st10" d="M44.5,38.1l-7-4.1c0.1-0.1,0.1-0.3,0.2-0.4l7,4.1C44.6,37.8,44.5,38,44.5,38.1"/>
                    <path class="st11" d="M44.7,37.7l-7-4.1c0.1-0.2,0.1-0.3,0.2-0.5l7,4.1C44.8,37.4,44.7,37.5,44.7,37.7"/>
                    <path class="st12" d="M44.8,37.2l-7-4.1c0.1-0.2,0.1-0.3,0.2-0.5l7,4.1C45,36.9,44.9,37.1,44.8,37.2"/>
                    <path class="st13" d="M45,36.7l-7-4.1c0.1-0.2,0.1-0.4,0.2-0.5l7,4.1C45.1,36.4,45.1,36.6,45,36.7"/>
                    <path class="st14" d="M45.2,36.2l-7-4.1c0.1-0.2,0.1-0.4,0.2-0.6l7,4.1C45.3,35.8,45.2,36,45.2,36.2"/>
                    <path class="st15" d="M45.3,35.6l-7-4.1c0.1-0.3,0.1-0.5,0.1-0.8l7,4.1C45.4,35.1,45.4,35.3,45.3,35.6"/>
                    <path class="st16" d="M45.5,34.8l-7-4.1c0-0.4,0.1-0.7,0.1-1.1l7,4.1C45.5,34.1,45.5,34.5,45.5,34.8"/>
                </g>
            </g>
            <g>
                <polygon class="st17" points="45.5,33.8 38.5,29.7 38.4,10.4 45.5,14.5               "/>
            </g>
            <g class="st0">
                <defs>
                    <path id="SVGID_3_" class="st0" d="M36.9,7l7,4.1c0.9,0.5,1.5,1.7,1.5,3.4l-7-4.1C38.4,8.7,37.8,7.6,36.9,7z"/>
                </defs>
                <clipPath id="SVGID_4_">
                    <use xlink:href="#SVGID_3_"  style="overflow:visible;"/>
                </clipPath>
                <g class="st18">
                    <path class="st16" d="M45.5,14.5l-7-4.1c0-1.7-0.6-2.9-1.5-3.4l7,4.1C44.9,11.7,45.5,12.8,45.5,14.5"/>
                </g>
            </g>
            <g>
                <polygon class="st19" points="13.9,57.9 6.8,53.8 33.9,38.2 40.9,42.3                "/>
            </g>
            <g class="st0">
                <defs>
                    <path id="SVGID_5_" class="st0" d="M36.9,7l7,4.1c-0.8-0.5-1.9-0.4-3.2,0.3l-7-4.1C35,6.6,36.1,6.5,36.9,7z"/>
                </defs>
                <clipPath id="SVGID_6_">
                    <use xlink:href="#SVGID_5_"  style="overflow:visible;"/>
                </clipPath>
                <g class="st20">
                    <path class="st21" d="M40.8,11.4l-7-4.1C34,7.2,34.2,7.1,34.4,7l7,4.1C41.2,11.2,41,11.3,40.8,11.4"/>
                    <path class="st22" d="M41.4,11.1l-7-4.1c0.2-0.1,0.3-0.1,0.5-0.2l7,4.1C41.8,11,41.6,11,41.4,11.1"/>
                    <path class="st23" d="M41.9,10.9l-7-4.1c0.1,0,0.3-0.1,0.4-0.1l7,4.1C42.2,10.9,42.1,10.9,41.9,10.9"/>
                    <path class="st24" d="M42.3,10.8l-7-4.1c0.1,0,0.2,0,0.3,0l7,4.1C42.5,10.8,42.4,10.8,42.3,10.8"/>
                    <path class="st25" d="M42.6,10.8l-7-4.1c0.1,0,0.2,0,0.3,0l7,4.1C42.8,10.8,42.7,10.8,42.6,10.8"/>
                    <path class="st26" d="M42.9,10.8l-7-4.1c0.1,0,0.2,0,0.3,0l7,4.1C43.1,10.8,43,10.8,42.9,10.8"/>
                    <path class="st27" d="M43.2,10.8l-7-4.1c0.1,0,0.2,0,0.3,0.1l7,4.1C43.4,10.9,43.3,10.9,43.2,10.8"/>
                    <path class="st28" d="M43.5,10.9l-7-4.1c0.1,0,0.2,0.1,0.2,0.1l7,4.1C43.6,11,43.5,10.9,43.5,10.9"/>
                    <path class="st29" d="M43.7,11l-7-4.1c0.1,0,0.2,0.1,0.2,0.1l7,4.1C43.9,11.1,43.8,11,43.7,11"/>
                    <path class="st30" d="M44,11.1l-7-4.1c0,0,0,0,0,0L44,11.1C44,11.1,44,11.1,44,11.1"/>
                </g>
            </g>
            <g class="st0">
                <defs>
                    <path id="SVGID_7_" class="st0" d="M38.4,4.4l7,4.1c-1.2-0.7-2.9-0.6-4.7,0.4l-7-4.1C35.6,3.8,37.2,3.7,38.4,4.4z"/>
                </defs>
                <clipPath id="SVGID_8_">
                    <use xlink:href="#SVGID_7_"  style="overflow:visible;"/>
                </clipPath>
                <g class="st31">
                    <path class="st2" d="M40.8,9l-7-4.1c0.3-0.2,0.6-0.3,0.9-0.4l7,4.1C41.4,8.6,41.1,8.8,40.8,9"/>
                    <path class="st3" d="M41.7,8.5l-7-4.1c0.3-0.1,0.5-0.2,0.8-0.3l7,4.1C42.2,8.3,42,8.4,41.7,8.5"/>
                    <path class="st4" d="M42.5,8.2l-7-4.1C35.6,4.1,35.8,4.1,36,4l7,4.1C42.8,8.2,42.7,8.2,42.5,8.2"/>
                    <path class="st5" d="M43,8.1L36,4c0.2,0,0.3,0,0.5,0l7,4.1C43.4,8.1,43.2,8.1,43,8.1"/>
                    <path class="st6" d="M43.5,8.1l-7-4.1c0.1,0,0.3,0,0.4,0l7,4.1C43.8,8.1,43.7,8.1,43.5,8.1"/>
                    <path class="st7" d="M44,8.1l-7-4.1c0.1,0,0.3,0,0.4,0l7,4.1C44.2,8.1,44.1,8.1,44,8.1"/>
                    <path class="st8" d="M44.4,8.1l-7-4.1c0.1,0,0.3,0.1,0.4,0.1l7,4.1C44.6,8.2,44.5,8.1,44.4,8.1"/>
                    <path class="st9" d="M44.7,8.2l-7-4.1c0.1,0,0.2,0.1,0.4,0.1l7,4.1C45,8.3,44.9,8.3,44.7,8.2"/>
                    <path class="st10" d="M45.1,8.3l-7-4.1c0.1,0.1,0.2,0.1,0.3,0.2l7,4.1C45.3,8.4,45.2,8.4,45.1,8.3"/>
                    <path class="st11" d="M45.4,8.5l-7-4.1c0,0,0,0,0,0L45.4,8.5C45.5,8.5,45.5,8.5,45.4,8.5"/>
                </g>
            </g>
            <g class="st0">
                <defs>
                    <path id="SVGID_9_" class="st0" d="M10.7,58.1l-7-4.1c0.8,0.5,1.9,0.4,3.2-0.3l7,4.1C12.7,58.6,11.6,58.6,10.7,58.1z"/>
                </defs>
                <clipPath id="SVGID_10_">
                    <use xlink:href="#SVGID_9_"  style="overflow:visible;"/>
                </clipPath>
                <g class="st32">
                    <path class="st11" d="M10.7,58.1l-7-4.1c0,0,0,0,0,0L10.7,58.1C10.7,58.1,10.7,58.1,10.7,58.1"/>
                    <path class="st10" d="M10.8,58.1l-7-4.1c0.1,0,0.2,0.1,0.2,0.1l7,4.1C10.9,58.2,10.8,58.2,10.8,58.1"/>
                    <path class="st9" d="M11,58.3l-7-4.1c0.1,0,0.2,0.1,0.2,0.1l7,4.1C11.2,58.3,11.1,58.3,11,58.3"/>
                    <path class="st8" d="M11.2,58.3l-7-4.1c0.1,0,0.2,0,0.3,0.1l7,4.1C11.4,58.4,11.3,58.4,11.2,58.3"/>
                    <path class="st7" d="M11.5,58.4l-7-4.1c0.1,0,0.2,0,0.3,0l7,4.1C11.7,58.4,11.6,58.4,11.5,58.4"/>
                    <path class="st6" d="M11.8,58.4l-7-4.1c0.1,0,0.2,0,0.3,0l7,4.1C12,58.4,11.9,58.4,11.8,58.4"/>
                    <path class="st5" d="M12.1,58.4l-7-4.1c0.1,0,0.2,0,0.3,0l7,4.1C12.3,58.4,12.2,58.4,12.1,58.4"/>
                    <path class="st4" d="M12.4,58.4l-7-4.1c0.1,0,0.3,0,0.4-0.1l7,4.1C12.7,58.4,12.5,58.4,12.4,58.4"/>
                    <path class="st3" d="M12.8,58.3l-7-4.1c0.2,0,0.3-0.1,0.5-0.2l7,4.1C13.1,58.2,13,58.3,12.8,58.3"/>
                    <path class="st2" d="M13.3,58.1l-7-4.1c0.2-0.1,0.4-0.2,0.6-0.3l7,4.1C13.7,58,13.5,58.1,13.3,58.1"/>
                </g>
            </g>
            <g>
                <polygon class="st33" points="31.2,16.9 24.2,12.8 33.8,7.3 40.8,11.4                "/>
            </g>
            <g class="st0">
                <defs>
                    <path id="SVGID_11_" class="st0" d="M10.7,58.1l-7-4.1c-0.9-0.5-1.5-1.7-1.5-3.4l7,4.1C9.2,56.4,9.8,57.6,10.7,58.1z"/>
                </defs>
                <clipPath id="SVGID_12_">
                    <use xlink:href="#SVGID_11_"  style="overflow:visible;"/>
                </clipPath>
                <g class="st34">
                    <path class="st35" d="M10.7,58.1l-7-4.1c-0.9-0.5-1.5-1.7-1.5-3.4l7,4.1C9.2,56.4,9.8,57.6,10.7,58.1"/>
                </g>
            </g>
            <g>
                <polygon class="st22" points="31,16.9 24,12.9 24.2,12.8 31.2,16.9               "/>
            </g>
            <g class="st0">
                <defs>
                    <path id="SVGID_13_" class="st0" d="M23.4,12.7c0.3,0.1,0.5,0.1,0.6,0.1c2.1,1.2,4.1,2.4,6.2,3.6l0.8,0.5c-0.1,0-0.3,0-0.6-0.1
                        C28.3,15.6,25.5,13.9,23.4,12.7z"/>
                </defs>
                <clipPath id="SVGID_14_">
                    <use xlink:href="#SVGID_13_"  style="overflow:visible;"/>
                </clipPath>
                <g class="st36">
                    <path class="st30" d="M30.4,16.8l-7-4.1c0,0,0,0,0,0L30.4,16.8C30.5,16.8,30.5,16.8,30.4,16.8"/>
                    <path class="st29" d="M30.5,16.8l-7-4.1c0,0,0.1,0,0.1,0.1l7,4.1C30.5,16.8,30.5,16.8,30.5,16.8"/>
                    <path class="st28" d="M30.6,16.9l-7-4.1c0,0,0.1,0,0.1,0l7,4.1C30.6,16.9,30.6,16.9,30.6,16.9"/>
                    <path class="st27" d="M30.7,16.9l-7-4.1c0,0,0.1,0,0.1,0l7,4.1C30.8,16.9,30.7,16.9,30.7,16.9"/>
                    <path class="st26" d="M30.8,16.9l-7-4.1c0,0,0.1,0,0.1,0l7,4.1C30.9,16.9,30.9,16.9,30.8,16.9"/>
                    <path class="st25" d="M30.9,16.9l-7-4.1c0,0,0.1,0,0.1,0L30.9,16.9C31,16.9,31,16.9,30.9,16.9"/>
                </g>
            </g>
            <g>
                <polygon class="st19" points="31.9,14.1 24.9,10 33.8,4.9 40.8,9                 "/>
            </g>
            <g class="st0">
                <defs>
                    <path id="SVGID_15_" class="st0" d="M9.2,60.7l-7-4.1c-1.3-0.8-2.1-2.4-2.1-4.8l7,4.1C7.1,58.3,7.9,60,9.2,60.7z"/>
                </defs>
                <clipPath id="SVGID_16_">
                    <use xlink:href="#SVGID_15_"  style="overflow:visible;"/>
                </clipPath>
                <g class="st37">
                    <path class="st16" d="M9.2,60.7l-7-4.1c-1.3-0.8-2.1-2.4-2.1-4.8l7,4.1C7.1,58.3,7.9,60,9.2,60.7"/>
                </g>
            </g>
            <g class="st0">
                <defs>
                    <path id="SVGID_17_" class="st0" d="M11.3,31.4c2.3,1.4,4.7,2.7,7,4.1c0,0.1,0.1,0.2,0.1,0.2c-2.3-1.4-4.7-2.7-7-4.1
                        C11.4,31.6,11.3,31.5,11.3,31.4z"/>
                </defs>
                <clipPath id="SVGID_18_">
                    <use xlink:href="#SVGID_17_"  style="overflow:visible;"/>
                </clipPath>
                <g class="st38">
                    <path class="st35" d="M18.8,40l-7-4.1c0.1-0.5,0.1-1,0.1-1.5c0-2.3-0.8-4-2-4.7l7,4.1c1.2,0.7,2,2.3,2,4.7
                        C18.9,39,18.9,39.5,18.8,40"/>
                </g>
            </g>
            <g class="st0">
                <defs>
                    <path id="SVGID_19_" class="st0" d="M11.9,34.4c0-1.1-0.2-2-0.4-2.7c2.3,1.4,4.7,2.7,7,4.1c0.3,0.7,0.4,1.7,0.4,2.7
                        c0,4.2-2.5,9.1-5.5,10.8c-1.2,0.7-2.3,0.8-3.3,0.4c-2.3-1.4-4.7-2.7-7-4.1C4,46,5.1,45.9,6.3,45.2
                        C9.4,43.4,11.9,38.6,11.9,34.4z"/>
                </defs>
                <clipPath id="SVGID_20_">
                    <use xlink:href="#SVGID_19_"  style="overflow:visible;"/>
                </clipPath>
                <g class="st39">
                    <path class="st28" d="M10.1,49.7l-7-4.1c0.1,0,0.2,0.1,0.3,0.1l7,4.1C10.3,49.8,10.2,49.8,10.1,49.7"/>
                    <path class="st27" d="M10.4,49.8l-7-4.1c0.1,0,0.2,0.1,0.3,0.1l7,4.1C10.6,49.9,10.5,49.9,10.4,49.8"/>
                    <path class="st26" d="M10.7,49.9l-7-4.1c0.1,0,0.2,0,0.3,0l7,4.1C10.9,49.9,10.8,49.9,10.7,49.9"/>
                    <path class="st25" d="M11,49.9l-7-4.1c0.1,0,0.2,0,0.3,0l7,4.1C11.2,50,11.1,50,11,49.9"/>
                    <path class="st24" d="M11.3,49.9l-7-4.1c0.1,0,0.2,0,0.4,0l7,4.1C11.6,49.9,11.5,49.9,11.3,49.9"/>
                    <path class="st23" d="M11.7,49.9l-7-4.1c0.1,0,0.3-0.1,0.4-0.1l7,4.1C12,49.9,11.9,49.9,11.7,49.9"/>
                    <path class="st22" d="M12.1,49.8l-7-4.1c0.2,0,0.4-0.1,0.6-0.2l7,4.1C12.5,49.7,12.3,49.8,12.1,49.8"/>
                    <path class="st21" d="M12.7,49.6l-7-4.1c0.2-0.1,0.4-0.2,0.7-0.3c0.5-0.3,1.1-0.7,1.6-1.2l7,4.1c-0.5,0.5-1,0.9-1.6,1.2
                        C13.1,49.4,12.9,49.5,12.7,49.6"/>
                    <path class="st22" d="M14.9,48.1l-7-4.1c0.2-0.2,0.4-0.4,0.6-0.6l7,4.1C15.3,47.7,15.1,47.9,14.9,48.1"/>
                    <path class="st23" d="M15.5,47.5l-7-4.1c0.1-0.2,0.3-0.3,0.4-0.5l7,4.1C15.8,47.2,15.6,47.3,15.5,47.5"/>
                    <path class="st24" d="M15.9,47l-7-4.1c0.1-0.2,0.2-0.3,0.4-0.5l7,4.1C16.2,46.7,16,46.8,15.9,47"/>
                    <path class="st25" d="M16.3,46.5l-7-4.1c0.1-0.2,0.2-0.3,0.3-0.5l7,4.1C16.5,46.2,16.4,46.3,16.3,46.5"/>
                    <path class="st26" d="M16.6,46l-7-4.1c0.1-0.2,0.2-0.3,0.3-0.5l7,4.1C16.8,45.7,16.7,45.8,16.6,46"/>
                    <path class="st27" d="M16.9,45.5l-7-4.1c0.1-0.2,0.2-0.3,0.3-0.5l7,4.1C17.1,45.2,17,45.3,16.9,45.5"/>
                    <path class="st28" d="M17.2,45l-7-4.1c0.1-0.2,0.2-0.4,0.3-0.5l7,4.1C17.4,44.6,17.3,44.8,17.2,45"/>
                    <path class="st29" d="M17.5,44.5l-7-4.1c0.1-0.2,0.2-0.4,0.3-0.6l7,4.1C17.6,44.1,17.5,44.3,17.5,44.5"/>
                    <path class="st30" d="M17.7,43.9l-7-4.1c0.1-0.2,0.2-0.4,0.2-0.6l7,4.1C17.9,43.5,17.8,43.7,17.7,43.9"/>
                    <path class="st40" d="M18,43.3l-7-4.1c0.1-0.2,0.2-0.4,0.2-0.7l7,4.1C18.1,42.9,18,43.1,18,43.3"/>
                    <path class="st41" d="M18.2,42.6l-7-4.1c0.1-0.2,0.2-0.5,0.2-0.7l7,4.1C18.4,42.2,18.3,42.4,18.2,42.6"/>
                    <path class="st42" d="M18.4,41.9l-7-4.1c0.1-0.3,0.1-0.6,0.2-0.8l7,4.1C18.6,41.4,18.5,41.6,18.4,41.9"/>
                    <path class="st43" d="M18.6,41.1l-7-4.1c0.1-0.4,0.1-0.7,0.2-1.1l7,4.1C18.8,40.3,18.7,40.7,18.6,41.1"/>
                    <path class="st35" d="M18.8,40l-7-4.1c0.1-0.5,0.1-1,0.1-1.5c0-2.3-0.8-4-2-4.7l7,4.1c1.2,0.7,2,2.3,2,4.7
                        C18.9,39,18.9,39.5,18.8,40"/>
                </g>
            </g>
            <g class="st0">
                <defs>
                    <path id="SVGID_21_" class="st0" d="M2.7,45.5c0.1,0.1,0.2,0.1,0.3,0.2c2.3,1.4,4.7,2.7,7,4.1c-0.1,0-0.2-0.1-0.3-0.2
                        C7.6,48.3,4.8,46.7,2.7,45.5z"/>
                </defs>
                <clipPath id="SVGID_22_">
                    <use xlink:href="#SVGID_21_"  style="overflow:visible;"/>
                </clipPath>
                <g class="st44">
                    <path class="st30" d="M9.7,49.6l-7-4.1c0,0,0,0,0,0L9.7,49.6C9.8,49.6,9.8,49.6,9.7,49.6"/>
                    <path class="st29" d="M9.8,49.6l-7-4.1c0.1,0.1,0.2,0.1,0.3,0.1l7,4.1C10,49.7,9.9,49.6,9.8,49.6"/>
                    <path class="st28" d="M10.1,49.7l-7-4.1c0.1,0,0.2,0.1,0.3,0.1l7,4.1C10.3,49.8,10.2,49.8,10.1,49.7"/>
                </g>
            </g>
            <g class="st0">
                <defs>
                    <path id="SVGID_23_" class="st0" d="M30.4,16.8l-7-4.1c-0.2-0.1-0.4-0.3-0.5-0.7c-0.3-0.7-0.1-1.8,0.4-3.2l7,4.1
                        c-0.5,1.4-0.6,2.5-0.4,3.2C30.1,16.5,30.3,16.7,30.4,16.8z"/>
                </defs>
                <clipPath id="SVGID_24_">
                    <use xlink:href="#SVGID_23_"  style="overflow:visible;"/>
                </clipPath>
                <g class="st45">
                    <path class="st16" d="M30.4,16.8l-7-4.1c-0.2-0.1-0.4-0.3-0.5-0.7c-0.1-0.4-0.2-0.9-0.1-1.4l7,4.1c-0.1,0.6,0,1,0.1,1.4
                        C30.1,16.5,30.3,16.7,30.4,16.8"/>
                    <path class="st15" d="M29.8,14.7l-7-4.1c0-0.2,0-0.3,0.1-0.5l7,4.1C29.9,14.4,29.9,14.6,29.8,14.7"/>
                    <path class="st14" d="M29.9,14.2l-7-4.1c0-0.2,0.1-0.3,0.1-0.5l7,4.1C30,13.9,30,14.1,29.9,14.2"/>
                    <path class="st13" d="M30,13.7l-7-4.1c0-0.2,0.1-0.3,0.2-0.5l7,4.1C30.1,13.4,30.1,13.6,30,13.7"/>
                    <path class="st12" d="M30.2,13.2l-7-4.1c0-0.1,0.1-0.2,0.1-0.3l7,4.1C30.3,13,30.2,13.1,30.2,13.2"/>
                </g>
            </g>
            <g class="st0">
                <defs>
                    <path id="SVGID_25_" class="st0" d="M9.7,49.6l-7-4.1c-0.2-0.1-0.4-0.2-0.5-0.4l7,4.1C9.4,49.3,9.6,49.5,9.7,49.6z"/>
                </defs>
                <clipPath id="SVGID_26_">
                    <use xlink:href="#SVGID_25_"  style="overflow:visible;"/>
                </clipPath>
                <g class="st46">
                    <path class="st16" d="M9.7,49.6l-7-4.1c-0.2-0.1-0.4-0.2-0.5-0.4l7,4.1C9.4,49.3,9.6,49.5,9.7,49.6"/>
                </g>
            </g>
            <g>
                <polygon class="st47" points="9.2,54.7 2.2,50.6 2.2,45.1 9.2,49.2               "/>
            </g>
            <g>
                <polygon class="st48" points="30.3,12.9 23.2,8.8 23.4,8.5 30.4,12.6                 "/>
            </g>
            <g class="st0">
                <defs>
                    <path id="SVGID_27_" class="st0" d="M11.3,31.4c-0.3-0.6-0.7-1.1-1.1-1.5c2.3,1.4,4.7,2.7,7,4.1c0.4,0.4,0.8,0.9,1.1,1.5
                        c-2.1-1.2-4.2-2.4-6.2-3.6c-0.1-0.1-0.3-0.2-0.4-0.2c0,0-0.1,0-0.1-0.1c0,0-0.1,0-0.1-0.1C11.5,31.5,11.4,31.5,11.3,31.4
                        C11.4,31.4,11.3,31.4,11.3,31.4z"/>
                </defs>
                <clipPath id="SVGID_28_">
                    <use xlink:href="#SVGID_27_"  style="overflow:visible;"/>
                </clipPath>
                <g class="st49">
                    <path class="st35" d="M18.8,40l-7-4.1c0.1-0.5,0.1-1,0.1-1.5c0-2.3-0.8-4-2-4.7l7,4.1c1.2,0.7,2,2.3,2,4.7
                        C18.9,39,18.9,39.5,18.8,40"/>
                </g>
            </g>
            <g class="st0">
                <defs>
                    <path id="SVGID_29_" class="st0" d="M11.3,47l-7-4.1c0.6,0.3,1.3,0.3,2.1-0.1c1.9-1.1,3.4-4.3,3.4-7.2c0-1.7-0.5-2.8-1.4-3.3
                        l7,4.1c0.8,0.5,1.3,1.7,1.4,3.3c0,2.9-1.5,6.1-3.4,7.2C12.6,47.3,11.8,47.3,11.3,47z"/>
                </defs>
                <clipPath id="SVGID_30_">
                    <use xlink:href="#SVGID_29_"  style="overflow:visible;"/>
                </clipPath>
                <g class="st50">
                    <path class="st11" d="M11.3,47l-7-4.1c0,0,0,0,0,0L11.3,47C11.3,47,11.3,47,11.3,47"/>
                    <path class="st10" d="M11.3,47l-7-4.1c0.1,0,0.1,0.1,0.2,0.1l7,4.1C11.4,47.1,11.3,47,11.3,47"/>
                    <path class="st9" d="M11.5,47.1l-7-4.1c0.1,0,0.1,0,0.2,0.1l7,4.1C11.6,47.1,11.5,47.1,11.5,47.1"/>
                    <path class="st8" d="M11.6,47.1l-7-4.1c0.1,0,0.1,0,0.2,0l7,4.1C11.8,47.2,11.7,47.2,11.6,47.1"/>
                    <path class="st7" d="M11.8,47.2l-7-4.1c0.1,0,0.1,0,0.2,0l7,4.1C12,47.2,11.9,47.2,11.8,47.2"/>
                    <path class="st6" d="M12,47.2l-7-4.1c0.1,0,0.1,0,0.2,0l7,4.1C12.2,47.2,12.1,47.2,12,47.2"/>
                    <path class="st5" d="M12.2,47.2l-7-4.1c0.1,0,0.1,0,0.2,0l7,4.1C12.4,47.2,12.3,47.2,12.2,47.2"/>
                    <path class="st4" d="M12.4,47.2l-7-4.1c0.1,0,0.2,0,0.2-0.1l7,4.1C12.6,47.2,12.5,47.2,12.4,47.2"/>
                    <path class="st3" d="M12.7,47.1l-7-4.1c0.1,0,0.2-0.1,0.3-0.1l7,4.1C12.9,47.1,12.8,47.1,12.7,47.1"/>
                    <path class="st2" d="M13,47l-7-4.1c0.1,0,0.2-0.1,0.4-0.2c0.3-0.2,0.6-0.4,0.9-0.7l7,4.1c-0.3,0.3-0.6,0.5-0.9,0.7
                        C13.2,46.9,13.1,47,13,47"/>
                    <path class="st3" d="M14.3,46.2l-7-4.1c0.1-0.1,0.2-0.2,0.3-0.3l7,4.1C14.5,45.9,14.4,46,14.3,46.2"/>
                    <path class="st4" d="M14.6,45.8l-7-4.1c0.1-0.1,0.2-0.2,0.2-0.3l7,4.1C14.7,45.6,14.7,45.7,14.6,45.8"/>
                    <path class="st5" d="M14.8,45.5l-7-4.1c0.1-0.1,0.1-0.2,0.2-0.3l7,4.1C15,45.3,14.9,45.4,14.8,45.5"/>
                    <path class="st6" d="M15,45.2l-7-4.1c0.1-0.1,0.1-0.2,0.2-0.3l7,4.1C15.2,45,15.1,45.1,15,45.2"/>
                    <path class="st7" d="M15.2,44.9l-7-4.1c0.1-0.1,0.1-0.2,0.2-0.3l7,4.1C15.4,44.7,15.3,44.8,15.2,44.9"/>
                    <path class="st8" d="M15.4,44.6l-7-4.1c0.1-0.1,0.1-0.2,0.2-0.3l7,4.1C15.5,44.4,15.5,44.5,15.4,44.6"/>
                    <path class="st9" d="M15.6,44.3l-7-4.1c0.1-0.1,0.1-0.2,0.2-0.3l7,4.1C15.7,44.1,15.7,44.2,15.6,44.3"/>
                    <path class="st10" d="M15.8,44l-7-4.1c0.1-0.1,0.1-0.2,0.2-0.4l7,4.1C15.9,43.7,15.8,43.8,15.8,44"/>
                    <path class="st11" d="M15.9,43.6l-7-4.1C9,39.4,9,39.2,9.1,39.1l7,4.1C16.1,43.3,16,43.5,15.9,43.6"/>
                    <path class="st12" d="M16.1,43.2l-7-4.1c0.1-0.1,0.1-0.3,0.2-0.4l7,4.1C16.2,42.9,16.2,43,16.1,43.2"/>
                    <path class="st13" d="M16.3,42.7l-7-4.1c0.1-0.2,0.1-0.3,0.2-0.5l7,4.1C16.4,42.4,16.3,42.6,16.3,42.7"/>
                    <path class="st14" d="M16.4,42.2l-7-4.1c0.1-0.2,0.1-0.4,0.1-0.6l7,4.1C16.5,41.8,16.5,42,16.4,42.2"/>
                    <path class="st15" d="M16.6,41.6l-7-4.1c0.1-0.3,0.1-0.5,0.1-0.8l7,4.1C16.7,41.1,16.6,41.3,16.6,41.6"/>
                    <path class="st16" d="M16.7,40.8l-7-4.1c0-0.4,0.1-0.8,0.1-1.1c0-1.7-0.5-2.8-1.4-3.3l7,4.1c0.8,0.5,1.3,1.7,1.4,3.3
                        C16.8,40.1,16.8,40.4,16.7,40.8"/>
                </g>
            </g>
            <g class="st0">
                <defs>
                    <path id="SVGID_31_" class="st0" d="M10.2,29.9c-0.1-0.1-0.2-0.2-0.3-0.2l7,4.1c0.1,0.1,0.2,0.1,0.3,0.2
                        c-1.2-0.7-2.3-1.4-3.5-2c-0.1-0.1-0.3-0.2-0.5-0.3c-0.6-0.4-1.2-0.7-1.8-1.1c-0.3-0.1-0.6-0.3-0.9-0.5
                        C10.5,30.1,10.3,30,10.2,29.9z"/>
                </defs>
                <clipPath id="SVGID_32_">
                    <use xlink:href="#SVGID_31_"  style="overflow:visible;"/>
                </clipPath>
                <g class="st51">
                    <path class="st35" d="M18.8,40l-7-4.1c0.1-0.5,0.1-1,0.1-1.5c0-2.3-0.8-4-2-4.7l7,4.1c1.2,0.7,2,2.3,2,4.7
                        C18.9,39,18.9,39.5,18.8,40"/>
                </g>
            </g>
            <g>
                <polygon class="st52" points="9.6,45.4 2.6,41.3 3,41.2 10.1,45.3                "/>
            </g>
            <g class="st0">
                <defs>
                    <path id="SVGID_33_" class="st0" d="M17.6,15.4c2.3,1.4,4.7,2.7,7,4.1c-0.2,0.5-0.6,1.4-1.6,2.1l-7-4.1
                        C17,16.8,17.4,15.9,17.6,15.4z"/>
                </defs>
                <clipPath id="SVGID_34_">
                    <use xlink:href="#SVGID_33_"  style="overflow:visible;"/>
                </clipPath>
                <g class="st53">
                    <path class="st21" d="M23.1,21.6l-7-4.1c0.2-0.1,0.3-0.3,0.5-0.4l7,4.1C23.4,21.4,23.2,21.5,23.1,21.6"/>
                    <path class="st22" d="M23.5,21.2l-7-4.1c0.1-0.1,0.2-0.2,0.2-0.2l7,4.1C23.7,21.1,23.6,21.1,23.5,21.2"/>
                    <path class="st23" d="M23.8,21l-7-4.1c0.1-0.1,0.1-0.1,0.2-0.2l7,4.1C23.9,20.8,23.8,20.9,23.8,21"/>
                    <path class="st24" d="M23.9,20.8l-7-4.1c0-0.1,0.1-0.1,0.1-0.2l7,4.1C24,20.7,24,20.7,23.9,20.8"/>
                    <path class="st25" d="M24.1,20.6l-7-4.1c0-0.1,0.1-0.1,0.1-0.2l7,4.1C24.1,20.5,24.1,20.6,24.1,20.6"/>
                    <path class="st26" d="M24.2,20.5l-7-4.1c0-0.1,0.1-0.1,0.1-0.2l7,4.1C24.2,20.3,24.2,20.4,24.2,20.5"/>
                    <path class="st27" d="M24.3,20.3l-7-4.1c0-0.1,0.1-0.1,0.1-0.2l7,4.1C24.3,20.2,24.3,20.2,24.3,20.3"/>
                    <path class="st28" d="M24.3,20.1l-7-4.1c0-0.1,0.1-0.1,0.1-0.2l7,4.1C24.4,20,24.4,20.1,24.3,20.1"/>
                    <path class="st29" d="M24.4,20l-7-4.1c0-0.1,0.1-0.1,0.1-0.2l7,4.1C24.5,19.9,24.5,19.9,24.4,20"/>
                    <path class="st30" d="M24.5,19.8l-7-4.1c0-0.1,0-0.1,0.1-0.2l7,4.1C24.5,19.7,24.5,19.8,24.5,19.8"/>
                    <path class="st40" d="M24.6,19.7l-7-4.1c0-0.1,0-0.1,0.1-0.2l7,4.1C24.6,19.6,24.6,19.6,24.6,19.7"/>
                </g>
            </g>
            <g>
                <polygon class="st33" points="22.9,21.7 15.9,17.6 16,17.5 23.1,21.6                 "/>
            </g>
            <g>
                <polygon class="st17" points="7.1,56 0.1,51.9 0,44.3 7.1,48.4               "/>
            </g>
            <g>
                <polygon class="st54" points="7.1,48.4 0,44.3 0.2,43.9 7.3,48               "/>
            </g>
            <g class="st0">
                <defs>
                    <path id="SVGID_35_" class="st0" d="M7.3,48l-7-4.1c0.4-0.9,1.1-1.9,1.8-2.3c0.2-0.1,0.4-0.2,0.6-0.2l7,4.1
                        c-0.2,0-0.4,0.1-0.6,0.2C8.3,46,7.6,47,7.3,48z"/>
                </defs>
                <clipPath id="SVGID_36_">
                    <use xlink:href="#SVGID_35_"  style="overflow:visible;"/>
                </clipPath>
                <g class="st55">
                    <path class="st11" d="M7.3,48l-7-4.1c0,0,0,0,0-0.1L7.3,48C7.3,47.9,7.3,47.9,7.3,48"/>
                    <path class="st10" d="M7.3,47.9l-7-4.1c0-0.1,0.1-0.2,0.1-0.2l7,4.1C7.3,47.7,7.3,47.8,7.3,47.9"/>
                    <path class="st9" d="M7.4,47.7l-7-4.1c0-0.1,0.1-0.2,0.1-0.2l7,4.1C7.5,47.5,7.4,47.6,7.4,47.7"/>
                    <path class="st8" d="M7.5,47.4l-7-4.1c0-0.1,0.1-0.2,0.1-0.2l7,4.1C7.6,47.3,7.5,47.3,7.5,47.4"/>
                    <path class="st7" d="M7.6,47.2l-7-4.1c0-0.1,0.1-0.2,0.1-0.2l7,4.1C7.7,47,7.7,47.1,7.6,47.2"/>
                    <path class="st6" d="M7.8,47l-7-4.1c0-0.1,0.1-0.1,0.1-0.2l7,4.1C7.9,46.8,7.8,46.9,7.8,47"/>
                    <path class="st5" d="M7.9,46.7l-7-4.1C0.9,42.6,1,42.5,1,42.4l7,4.1C8,46.6,8,46.7,7.9,46.7"/>
                    <path class="st4" d="M8.1,46.5l-7-4.1c0.1-0.1,0.1-0.1,0.2-0.2l7,4.1C8.2,46.4,8.1,46.5,8.1,46.5"/>
                    <path class="st3" d="M8.3,46.3l-7-4.1C1.3,42.1,1.4,42,1.4,42l7,4.1C8.4,46.1,8.3,46.2,8.3,46.3"/>
                    <path class="st2" d="M8.5,46.1l-7-4.1c0.2-0.2,0.4-0.3,0.6-0.5c0.1,0,0.2-0.1,0.2-0.1l7,4.1c-0.1,0-0.2,0.1-0.2,0.1
                        C8.9,45.7,8.7,45.9,8.5,46.1"/>
                    <path class="st3" d="M9.3,45.5l-7-4.1c0.1,0,0.1,0,0.2-0.1l7,4.1C9.4,45.4,9.4,45.5,9.3,45.5"/>
                    <path class="st4" d="M9.5,45.4l-7-4.1c0,0,0.1,0,0.1,0l7,4.1C9.6,45.4,9.5,45.4,9.5,45.4"/>
                </g>
            </g>
            <g class="st0">
                <defs>
                    <path id="SVGID_37_" class="st0" d="M23.2,3l7,4.1c0.7,0.4,1.1,1.2,1.1,2.3c0,1-0.3,2.1-0.9,3.2l-7-4.1
                        c0.6-1.1,0.9-2.2,0.9-3.2C24.2,4.2,23.8,3.4,23.2,3z"/>
                </defs>
                <clipPath id="SVGID_38_">
                    <use xlink:href="#SVGID_37_"  style="overflow:visible;"/>
                </clipPath>
                <g class="st56">
                    <path class="st9" d="M30.4,12.6l-7-4.1c0-0.1,0.1-0.2,0.1-0.2l7,4.1C30.5,12.5,30.5,12.5,30.4,12.6"/>
                    <path class="st10" d="M30.5,12.4l-7-4.1c0.1-0.1,0.1-0.2,0.1-0.3l7,4.1C30.6,12.2,30.6,12.3,30.5,12.4"/>
                    <path class="st11" d="M30.7,12.1l-7-4.1c0-0.1,0.1-0.2,0.1-0.3l7,4.1C30.8,11.8,30.7,12,30.7,12.1"/>
                    <path class="st12" d="M30.8,11.7l-7-4.1c0-0.1,0.1-0.2,0.1-0.3l7,4.1C30.9,11.5,30.9,11.6,30.8,11.7"/>
                    <path class="st13" d="M30.9,11.4l-7-4.1c0-0.1,0.1-0.2,0.1-0.4l7,4.1C31,11.2,31,11.3,30.9,11.4"/>
                    <path class="st14" d="M31.1,11l-7-4.1c0-0.1,0.1-0.3,0.1-0.4l7,4.1C31.1,10.8,31.1,10.9,31.1,11"/>
                    <path class="st15" d="M31.2,10.6l-7-4.1c0-0.2,0.1-0.3,0.1-0.5l7,4.1C31.2,10.3,31.2,10.5,31.2,10.6"/>
                    <path class="st16" d="M31.2,10.1l-7-4.1c0-0.2,0-0.5,0-0.7c0-1.1-0.4-1.9-1.1-2.3l7,4.1c0.7,0.4,1.1,1.2,1.1,2.3
                        C31.3,9.7,31.3,9.9,31.2,10.1"/>
                </g>
            </g>
            <g class="st0">
                <defs>
                    <path id="SVGID_39_" class="st0" d="M24.6,19.5l-7-4.1c0.4-1.2,0.2-2.3-0.7-3.4l7,4.1C24.8,17.2,25,18.3,24.6,19.5z"/>
                </defs>
                <clipPath id="SVGID_40_">
                    <use xlink:href="#SVGID_39_"  style="overflow:visible;"/>
                </clipPath>
                <g class="st57">
                    <path class="st41" d="M24.6,19.5l-7-4.1c0-0.1,0-0.1,0.1-0.2l7,4.1C24.7,19.4,24.6,19.4,24.6,19.5"/>
                    <path class="st42" d="M24.7,19.3l-7-4.1c0-0.1,0-0.2,0.1-0.2l7,4.1C24.7,19.2,24.7,19.3,24.7,19.3"/>
                    <path class="st43" d="M24.7,19.1l-7-4.1c0-0.1,0-0.2,0-0.3l7,4.1C24.8,18.9,24.8,19,24.7,19.1"/>
                    <path class="st35" d="M24.8,18.8l-7-4.1c0.1-0.9-0.1-1.9-0.8-2.8l7,4.1C24.6,16.9,24.9,17.9,24.8,18.8"/>
                </g>
            </g>
            <g class="st0">
                <defs>
                    <path id="SVGID_41_" class="st0" d="M22.7,19.4l-7-4.1c0-0.2-0.2-0.5-0.4-0.9l7,4.1C22.5,18.9,22.6,19.2,22.7,19.4z"/>
                </defs>
                <clipPath id="SVGID_42_">
                    <use xlink:href="#SVGID_41_"  style="overflow:visible;"/>
                </clipPath>
                <g class="st58">
                    <path class="st16" d="M22.7,19.4l-7-4.1c0-0.2-0.2-0.5-0.4-0.9l7,4.1C22.5,18.9,22.6,19.2,22.7,19.4"/>
                </g>
            </g>
            <g>
                <polygon class="st47" points="24,16.1 16.9,12 16.9,11.1 24,15.2                 "/>
            </g>
            <g>
                <polygon class="st19" points="23.6,15.4 16.5,11.3 16.9,11.1 24,15.2                 "/>
            </g>
            <g>
                <polygon class="st59" points="22.2,18.5 15.2,14.4 14.8,13.9 21.9,18                 "/>
            </g>
            <g class="st0">
                <defs>
                    <path id="SVGID_43_" class="st0" d="M9.9,29.7l7,4.1c-1-0.6-2.2-0.5-3.6,0.3c-1.6,0.9-3.1,2.7-4.1,4.9l-7-4.1
                        c1.1-2.2,2.5-4,4.1-4.9C7.6,29.2,8.9,29.1,9.9,29.7z"/>
                </defs>
                <clipPath id="SVGID_44_">
                    <use xlink:href="#SVGID_43_"  style="overflow:visible;"/>
                </clipPath>
                <g class="st60">
                    <path class="st10" d="M9.2,39l-7-4.1c0,0,0,0,0,0L9.2,39C9.2,38.9,9.2,39,9.2,39"/>
                    <path class="st9" d="M9.2,38.9l-7-4.1c0.1-0.2,0.2-0.4,0.3-0.6l7,4.1C9.4,38.6,9.3,38.7,9.2,38.9"/>
                    <path class="st8" d="M9.5,38.4l-7-4.1c0.1-0.2,0.2-0.4,0.3-0.5l7,4.1C9.7,38,9.6,38.2,9.5,38.4"/>
                    <path class="st7" d="M9.8,37.9l-7-4.1c0.1-0.2,0.2-0.3,0.3-0.5l7,4.1C10,37.5,9.9,37.7,9.8,37.9"/>
                    <path class="st6" d="M10.1,37.4l-7-4.1c0.1-0.2,0.2-0.3,0.3-0.5l7,4.1C10.3,37,10.2,37.2,10.1,37.4"/>
                    <path class="st5" d="M10.4,36.9l-7-4.1c0.1-0.2,0.2-0.3,0.4-0.5l7,4.1C10.6,36.6,10.5,36.7,10.4,36.9"/>
                    <path class="st4" d="M10.8,36.4l-7-4.1C3.8,32.1,4,32,4.1,31.8l7,4.1C11,36.1,10.9,36.2,10.8,36.4"/>
                    <path class="st3" d="M11.2,35.9l-7-4.1c0.2-0.2,0.4-0.4,0.5-0.6l7,4.1C11.5,35.5,11.3,35.7,11.2,35.9"/>
                    <path class="st2" d="M11.7,35.3l-7-4.1c0.5-0.5,1.1-0.9,1.6-1.3c0.2-0.1,0.4-0.2,0.6-0.3l7,4.1c-0.2,0.1-0.4,0.2-0.6,0.3
                        C12.8,34.4,12.2,34.8,11.7,35.3"/>
                    <path class="st3" d="M14,33.7l-7-4.1c0.2-0.1,0.4-0.1,0.6-0.2l7,4.1C14.3,33.6,14.2,33.7,14,33.7"/>
                    <path class="st4" d="M14.5,33.5l-7-4.1c0.1,0,0.3-0.1,0.4-0.1l7,4.1C14.8,33.5,14.7,33.5,14.5,33.5"/>
                    <path class="st5" d="M15,33.5l-7-4.1c0.1,0,0.3,0,0.4,0l7,4.1C15.2,33.4,15.1,33.4,15,33.5"/>
                    <path class="st6" d="M15.3,33.4l-7-4.1c0.1,0,0.2,0,0.3,0l7,4.1C15.6,33.4,15.5,33.4,15.3,33.4"/>
                    <path class="st7" d="M15.7,33.4l-7-4.1c0.1,0,0.2,0,0.3,0l7,4.1C15.9,33.4,15.8,33.4,15.7,33.4"/>
                    <path class="st8" d="M16,33.5l-7-4.1c0.1,0,0.2,0,0.3,0.1l7,4.1C16.2,33.5,16.1,33.5,16,33.5"/>
                    <path class="st9" d="M16.3,33.5l-7-4.1c0.1,0,0.2,0.1,0.3,0.1l7,4.1C16.5,33.6,16.4,33.6,16.3,33.5"/>
                    <path class="st10" d="M16.6,33.6l-7-4.1c0.1,0,0.2,0.1,0.3,0.1l7,4.1C16.8,33.7,16.7,33.7,16.6,33.6"/>
                    <path class="st11" d="M16.9,33.8l-7-4.1c0,0,0,0,0,0L16.9,33.8C16.9,33.8,16.9,33.8,16.9,33.8"/>
                </g>
            </g>
            <g class="st0">
                <defs>
                    <path id="SVGID_45_" class="st0" d="M20.2,3.3c1.2-0.7,2.2-0.7,2.9-0.3l7,4.1c-0.7-0.4-1.8-0.4-2.9,0.3
                        C25.2,6.2,22.3,4.5,20.2,3.3z"/>
                </defs>
                <clipPath id="SVGID_46_">
                    <use xlink:href="#SVGID_45_"  style="overflow:visible;"/>
                </clipPath>
                <g class="st61">
                    <path class="st21" d="M27.3,7.4l-7-4.1c0.2-0.1,0.4-0.2,0.6-0.3l7,4.1C27.7,7.2,27.5,7.3,27.3,7.4"/>
                    <path class="st22" d="M27.9,7.1l-7-4.1c0.2-0.1,0.3-0.1,0.5-0.2l7,4.1C28.2,7,28,7,27.9,7.1"/>
                    <path class="st23" d="M28.4,6.9l-7-4.1c0.1,0,0.2-0.1,0.4-0.1l7,4.1C28.6,6.9,28.5,6.9,28.4,6.9"/>
                    <path class="st24" d="M28.7,6.9l-7-4.1c0.1,0,0.2,0,0.3,0l7,4.1C28.9,6.8,28.8,6.8,28.7,6.9"/>
                    <path class="st25" d="M29,6.8l-7-4.1c0.1,0,0.2,0,0.3,0l7,4.1C29.2,6.8,29.1,6.8,29,6.8"/>
                    <path class="st26" d="M29.3,6.8l-7-4.1c0.1,0,0.2,0,0.2,0l7,4.1C29.5,6.8,29.4,6.8,29.3,6.8"/>
                    <path class="st27" d="M29.6,6.9l-7-4.1c0.1,0,0.2,0,0.2,0.1l7,4.1C29.7,6.9,29.6,6.9,29.6,6.9"/>
                    <path class="st28" d="M29.8,6.9l-7-4.1c0.1,0,0.1,0,0.2,0.1L30,7C29.9,7,29.9,6.9,29.8,6.9"/>
                    <path class="st29" d="M30,7l-7-4.1C23,2.9,23.1,3,23.1,3l7,4.1C30.1,7,30.1,7,30,7"/>
                    <path class="st30" d="M30.2,7.1l-7-4.1c0,0,0,0,0,0L30.2,7.1C30.2,7.1,30.2,7.1,30.2,7.1"/>
                </g>
            </g>
            <g class="st0">
                <defs>
                    <path id="SVGID_47_" class="st0" d="M7.7,42.4l-7-4.1c-0.2-0.1-0.4-0.4-0.6-0.8l7,4.1C7.3,42,7.5,42.3,7.7,42.4z"/>
                </defs>
                <clipPath id="SVGID_48_">
                    <use xlink:href="#SVGID_47_"  style="overflow:visible;"/>
                </clipPath>
                <g class="st62">
                    <path class="st16" d="M7.7,42.4l-7-4.1c-0.2-0.1-0.4-0.4-0.6-0.8l7,4.1C7.3,42,7.5,42.3,7.7,42.4"/>
                </g>
            </g>
            <g>
                <polygon class="st59" points="7.1,41.6 0.1,37.5 0,37.4 7.1,41.5                 "/>
            </g>
            <g class="st0">
                <defs>
                    <path id="SVGID_49_" class="st0" d="M23.6,15.4l-7-4.1c-0.2-0.4-0.3-0.9-0.3-1.4c0-2.4,1.8-5.4,4-6.6l7,4.1
                        c-2.2,1.3-4,4.3-4,6.6C23.3,14.6,23.4,15,23.6,15.4z"/>
                </defs>
                <clipPath id="SVGID_50_">
                    <use xlink:href="#SVGID_49_"  style="overflow:visible;"/>
                </clipPath>
                <g class="st63">
                    <path class="st35" d="M23.6,15.4l-7-4.1c-0.2-0.4-0.3-0.9-0.3-1.4c0-0.2,0-0.5,0-0.7l7,4.1c0,0.2,0,0.5,0,0.7
                        C23.3,14.6,23.4,15,23.6,15.4"/>
                    <path class="st43" d="M23.3,13.4l-7-4.1c0-0.2,0.1-0.3,0.1-0.5l7,4.1C23.4,13,23.4,13.2,23.3,13.4"/>
                    <path class="st42" d="M23.4,12.9l-7-4.1c0-0.1,0.1-0.3,0.1-0.4l7,4.1C23.5,12.6,23.5,12.7,23.4,12.9"/>
                    <path class="st41" d="M23.5,12.4l-7-4.1c0-0.1,0.1-0.2,0.1-0.4l7,4.1C23.6,12.2,23.6,12.3,23.5,12.4"/>
                    <path class="st40" d="M23.6,12.1l-7-4.1c0-0.1,0.1-0.2,0.1-0.3l7,4.1C23.7,11.8,23.7,12,23.6,12.1"/>
                    <path class="st30" d="M23.8,11.7l-7-4.1c0-0.1,0.1-0.2,0.1-0.3l7,4.1C23.9,11.5,23.8,11.6,23.8,11.7"/>
                    <path class="st29" d="M23.9,11.4l-7-4.1c0-0.1,0.1-0.2,0.1-0.3l7,4.1C24,11.2,23.9,11.3,23.9,11.4"/>
                    <path class="st28" d="M24,11.1L17,7c0.1-0.1,0.1-0.2,0.2-0.3l7,4.1C24.2,10.8,24.1,11,24,11.1"/>
                    <path class="st27" d="M24.2,10.7l-7-4.1c0.1-0.1,0.1-0.2,0.2-0.3l7,4.1C24.3,10.5,24.3,10.6,24.2,10.7"/>
                    <path class="st26" d="M24.4,10.4l-7-4.1c0.1-0.1,0.1-0.2,0.2-0.3l7,4.1C24.5,10.2,24.5,10.3,24.4,10.4"/>
                    <path class="st25" d="M24.6,10.1l-7-4.1c0.1-0.1,0.2-0.2,0.2-0.3l7,4.1C24.7,9.8,24.7,10,24.6,10.1"/>
                    <path class="st24" d="M24.8,9.7l-7-4.1C17.9,5.5,18,5.4,18,5.3l7,4.1C25,9.5,24.9,9.6,24.8,9.7"/>
                    <path class="st23" d="M25.1,9.4l-7-4.1c0.1-0.1,0.2-0.3,0.3-0.4l7,4.1C25.3,9.1,25.2,9.2,25.1,9.4"/>
                    <path class="st22" d="M25.4,9l-7-4.1c0.1-0.2,0.3-0.3,0.5-0.5l7,4.1C25.7,8.6,25.6,8.8,25.4,9"/>
                    <path class="st21" d="M25.9,8.5l-7-4.1c0.4-0.4,0.9-0.8,1.4-1.1l7,4.1C26.8,7.7,26.3,8.1,25.9,8.5"/>
                </g>
            </g>
            <g>
                <polygon class="st47" points="9.2,39 2.1,34.9 2.1,31.4 9.2,35.5                 "/>
            </g>
            <g>
                <polygon class="st33" points="13.8,27 6.8,22.9 15.9,17.6 22.9,21.7              "/>
            </g>
            <g>
                <polygon class="st17" points="7.1,41.5 0,37.4 0,32.6 7,36.7                 "/>
            </g>
            <g>
                <polygon class="st19" points="13.8,24.5 6.8,20.4 15.6,15.3 22.7,19.4                "/>
            </g>
            <g class="st0">
                <defs>
                    <path id="SVGID_51_" class="st0" d="M24.7,0.4l7,4.1C30.6,3.9,29,4,27.3,5c-3.4,1.9-6.1,6.6-6.1,10.3c0,1.1,0.2,2,0.7,2.7
                        l-7-4.1c-0.4-0.7-0.7-1.6-0.7-2.7c0-3.7,2.7-8.4,6.1-10.3C22-0.1,23.5-0.2,24.7,0.4z"/>
                </defs>
                <clipPath id="SVGID_52_">
                    <use xlink:href="#SVGID_51_"  style="overflow:visible;"/>
                </clipPath>
                <g class="st64">
                    <path class="st16" d="M21.9,18l-7-4.1c-0.4-0.7-0.7-1.6-0.7-2.7c0-0.4,0-0.7,0.1-1.1l7,4.1c0,0.4-0.1,0.7-0.1,1.1
                        C21.2,16.4,21.4,17.3,21.9,18"/>
                    <path class="st15" d="M21.2,14.2l-7-4.1c0-0.3,0.1-0.5,0.1-0.8l7,4.1C21.3,13.6,21.3,13.9,21.2,14.2"/>
                    <path class="st14" d="M21.4,13.4l-7-4.1c0-0.2,0.1-0.4,0.2-0.7l7,4.1C21.5,12.9,21.4,13.2,21.4,13.4"/>
                    <path class="st13" d="M21.5,12.7l-7-4.1c0.1-0.2,0.1-0.4,0.2-0.6l7,4.1C21.6,12.3,21.6,12.5,21.5,12.7"/>
                    <path class="st12" d="M21.7,12.1l-7-4.1c0.1-0.2,0.1-0.4,0.2-0.5l7,4.1C21.8,11.8,21.8,11.9,21.7,12.1"/>
                    <path class="st11" d="M21.9,11.6l-7-4.1C14.9,7.3,15,7.1,15.1,7l7,4.1C22.1,11.2,22,11.4,21.9,11.6"/>
                    <path class="st10" d="M22.1,11.1l-7-4.1c0.1-0.2,0.2-0.3,0.2-0.5l7,4.1C22.3,10.7,22.2,10.9,22.1,11.1"/>
                    <path class="st9" d="M22.4,10.5l-7-4.1c0.1-0.2,0.2-0.3,0.3-0.5l7,4.1C22.5,10.2,22.4,10.4,22.4,10.5"/>
                    <path class="st8" d="M22.6,10l-7-4.1c0.1-0.2,0.2-0.3,0.3-0.5l7,4.1C22.8,9.7,22.7,9.9,22.6,10"/>
                    <path class="st7" d="M22.9,9.5l-7-4.1c0.1-0.2,0.2-0.3,0.3-0.5l7,4.1C23.1,9.2,23,9.4,22.9,9.5"/>
                    <path class="st6" d="M23.2,9l-7-4.1c0.1-0.2,0.2-0.4,0.4-0.5l7,4.1C23.4,8.7,23.3,8.8,23.2,9"/>
                    <path class="st5" d="M23.6,8.5l-7-4.1c0.1-0.2,0.3-0.4,0.4-0.6l7,4.1C23.8,8.1,23.7,8.3,23.6,8.5"/>
                    <path class="st4" d="M24,7.9l-7-4.1c0.2-0.2,0.3-0.4,0.5-0.6l7,4.1C24.3,7.5,24.1,7.7,24,7.9"/>
                    <path class="st3" d="M24.5,7.3l-7-4.1c0.2-0.3,0.5-0.5,0.7-0.7l7,4.1C24.9,6.8,24.7,7.1,24.5,7.3"/>
                    <path class="st2" d="M25.2,6.6l-7-4.1c0.7-0.6,1.4-1.2,2.1-1.6c0.3-0.2,0.6-0.3,0.9-0.4l7,4.1c-0.3,0.1-0.6,0.3-0.9,0.4
                        C26.5,5.4,25.8,5.9,25.2,6.6"/>
                    <path class="st3" d="M28.2,4.5l-7-4.1c0.3-0.1,0.5-0.2,0.7-0.3l7,4.1C28.7,4.3,28.4,4.4,28.2,4.5"/>
                    <path class="st4" d="M28.9,4.3l-7-4.1c0.2-0.1,0.4-0.1,0.6-0.1l7,4.1C29.3,4.2,29.1,4.2,28.9,4.3"/>
                    <path class="st5" d="M29.5,4.1l-7-4.1c0.2,0,0.3,0,0.5,0l7,4.1C29.8,4.1,29.6,4.1,29.5,4.1"/>
                    <path class="st6" d="M29.9,4.1l-7-4.1c0.1,0,0.3,0,0.4,0l7,4.1C30.2,4.1,30.1,4.1,29.9,4.1"/>
                    <path class="st7" d="M30.3,4.1l-7-4.1c0.1,0,0.3,0,0.4,0l7,4.1C30.6,4.1,30.5,4.1,30.3,4.1"/>
                    <path class="st8" d="M30.7,4.1l-7-4.1c0.1,0,0.2,0,0.3,0.1l7,4.1C30.9,4.2,30.8,4.2,30.7,4.1"/>
                    <path class="st9" d="M31.1,4.2l-7-4.1c0.1,0,0.2,0.1,0.3,0.1l7,4.1C31.3,4.3,31.2,4.3,31.1,4.2"/>
                    <path class="st10" d="M31.4,4.3l-7-4.1c0.1,0,0.2,0.1,0.3,0.1l7,4.1C31.6,4.4,31.5,4.4,31.4,4.3"/>
                    <path class="st11" d="M31.7,4.5l-7-4.1c0,0,0,0,0,0L31.7,4.5C31.7,4.5,31.7,4.5,31.7,4.5"/>
                </g>
            </g>
            <g class="st0">
                <defs>
                    <path id="SVGID_53_" class="st0" d="M9.2,35.5l-7-4.1c0-3.2,2.1-7,4.6-8.5l7,4.1C11.2,28.5,9.2,32.3,9.2,35.5z"/>
                </defs>
                <clipPath id="SVGID_54_">
                    <use xlink:href="#SVGID_53_"  style="overflow:visible;"/>
                </clipPath>
                <g class="st65">
                    <path class="st35" d="M9.2,35.5l-7-4.1c0-0.3,0-0.7,0.1-1.1l7,4.1C9.2,34.8,9.2,35.1,9.2,35.5"/>
                    <path class="st43" d="M9.2,34.4l-7-4.1c0-0.3,0.1-0.5,0.1-0.8l7,4.1C9.3,33.9,9.3,34.2,9.2,34.4"/>
                    <path class="st42" d="M9.4,33.7l-7-4.1c0-0.2,0.1-0.4,0.2-0.6l7,4.1C9.5,33.3,9.4,33.5,9.4,33.7"/>
                    <path class="st41" d="M9.5,33l-7-4.1c0-0.2,0.1-0.4,0.2-0.5l7,4.1C9.6,32.7,9.6,32.9,9.5,33"/>
                    <path class="st40" d="M9.7,32.5l-7-4.1c0.1-0.2,0.1-0.3,0.2-0.5l7,4.1C9.8,32.2,9.7,32.3,9.7,32.5"/>
                    <path class="st30" d="M9.9,32l-7-4.1c0.1-0.2,0.1-0.3,0.2-0.5l7,4.1C10,31.7,9.9,31.9,9.9,32"/>
                    <path class="st29" d="M10.1,31.6l-7-4.1c0.1-0.1,0.1-0.3,0.2-0.4l7,4.1C10.2,31.3,10.1,31.4,10.1,31.6"/>
                    <path class="st28" d="M10.3,31.1l-7-4.1c0.1-0.1,0.1-0.3,0.2-0.4l7,4.1C10.4,30.8,10.3,31,10.3,31.1"/>
                    <path class="st27" d="M10.5,30.7l-7-4.1c0.1-0.1,0.2-0.3,0.2-0.4l7,4.1C10.6,30.4,10.5,30.6,10.5,30.7"/>
                    <path class="st26" d="M10.7,30.3l-7-4.1c0.1-0.1,0.2-0.3,0.2-0.4l7,4.1C10.9,30,10.8,30.2,10.7,30.3"/>
                    <path class="st25" d="M10.9,29.9l-7-4.1c0.1-0.1,0.2-0.3,0.3-0.4l7,4.1C11.1,29.6,11,29.8,10.9,29.9"/>
                    <path class="st24" d="M11.2,29.5l-7-4.1c0.1-0.1,0.2-0.3,0.3-0.4l7,4.1C11.4,29.2,11.3,29.3,11.2,29.5"/>
                    <path class="st23" d="M11.5,29.1l-7-4.1c0.1-0.2,0.2-0.3,0.4-0.4l7,4.1C11.8,28.8,11.6,28.9,11.5,29.1"/>
                    <path class="st22" d="M11.9,28.6l-7-4.1C5,24.3,5.2,24.2,5.3,24l7,4.1C12.2,28.3,12,28.4,11.9,28.6"/>
                    <path class="st21" d="M12.4,28.1l-7-4.1c0.5-0.4,0.9-0.8,1.4-1.1l7,4.1C13.3,27.3,12.8,27.7,12.4,28.1"/>
                </g>
            </g>
            <g>
                <path class="st66" d="M27.3,7.4c2.2-1.3,4-0.4,4,2c0,1-0.3,2.1-0.9,3.2l-0.1,0.3c-0.5,1.4-0.6,2.5-0.4,3.2
                    c0.3,0.8,1,0.8,1.1,0.8l0.2,0l9.6-5.5c2.6-1.5,4.7-0.1,4.7,3.1l0.1,19.2c0,3.2-2.1,7-4.6,8.5l-27,15.6c-2.6,1.5-4.7,0.1-4.7-3.1
                    l0-5.5c1,1,2.5,1,4.2,0.1c3.1-1.8,5.6-6.6,5.5-10.8c0-4.2-2.5-6.2-5.6-4.4c-1.6,0.9-3.1,2.7-4.1,4.9l0-3.5c0-3.2,2.1-7,4.6-8.5
                    l9.1-5.3l0.2-0.1c1-0.7,1.4-1.6,1.6-2.1c0.4-1.2,0.2-2.3-0.7-3.4l0-0.9l-0.4,0.2c-0.2-0.4-0.3-0.9-0.3-1.4
                    C23.3,11.7,25.1,8.7,27.3,7.4z"/>
            </g>
            <g class="st0">
                <defs>
                    <path id="SVGID_55_" class="st0" d="M7,36.7l-7-4.1c0-4.5,3-10,6.8-12.2l7,4.1C10.1,26.7,7,32.2,7,36.7z"/>
                </defs>
                <clipPath id="SVGID_56_">
                    <use xlink:href="#SVGID_55_"  style="overflow:visible;"/>
                </clipPath>
                <g class="st67">
                    <path class="st16" d="M7,36.7l-7-4.1c0-0.5,0-1,0.1-1.5l7,4.1C7.1,35.7,7,36.2,7,36.7"/>
                    <path class="st15" d="M7.1,35.2l-7-4.1c0-0.3,0.1-0.7,0.2-1.1l7,4.1C7.2,34.5,7.2,34.9,7.1,35.2"/>
                    <path class="st14" d="M7.3,34.2l-7-4.1c0.1-0.3,0.1-0.6,0.2-0.9l7,4.1C7.5,33.6,7.4,33.9,7.3,34.2"/>
                    <path class="st13" d="M7.5,33.3l-7-4.1c0.1-0.3,0.1-0.5,0.2-0.8l7,4.1C7.7,32.8,7.6,33.1,7.5,33.3"/>
                    <path class="st12" d="M7.8,32.6l-7-4.1C0.8,28.2,0.9,28,1,27.8l7,4.1C7.9,32.1,7.8,32.3,7.8,32.6"/>
                    <path class="st11" d="M8,31.9l-7-4.1c0.1-0.2,0.2-0.4,0.3-0.7l7,4.1C8.2,31.4,8.1,31.7,8,31.9"/>
                    <path class="st10" d="M8.3,31.2l-7-4.1c0.1-0.2,0.2-0.4,0.3-0.6l7,4.1C8.5,30.8,8.4,31,8.3,31.2"/>
                    <path class="st9" d="M8.6,30.6l-7-4.1c0.1-0.2,0.2-0.4,0.3-0.6l7,4.1C8.8,30.2,8.7,30.4,8.6,30.6"/>
                    <path class="st8" d="M8.9,30l-7-4.1c0.1-0.2,0.2-0.4,0.3-0.6l7,4.1C9.1,29.6,9,29.8,8.9,30"/>
                    <path class="st7" d="M9.2,29.4l-7-4.1c0.1-0.2,0.2-0.4,0.4-0.6l7,4.1C9.4,29,9.3,29.2,9.2,29.4"/>
                    <path class="st6" d="M9.6,28.8l-7-4.1c0.1-0.2,0.3-0.4,0.4-0.6l7,4.1C9.8,28.4,9.7,28.6,9.6,28.8"/>
                    <path class="st5" d="M10,28.2l-7-4.1c0.1-0.2,0.3-0.4,0.5-0.6l7,4.1C10.3,27.8,10.1,28,10,28.2"/>
                    <path class="st4" d="M10.4,27.6l-7-4.1c0.2-0.2,0.4-0.4,0.5-0.7l7,4.1C10.8,27.2,10.6,27.4,10.4,27.6"/>
                    <path class="st3" d="M10.9,27l-7-4.1c0.2-0.3,0.5-0.5,0.7-0.7l7,4.1C11.4,26.5,11.2,26.7,10.9,27"/>
                    <path class="st2" d="M11.6,26.2l-7-4.1c0.7-0.7,1.4-1.2,2.2-1.7l7,4.1C13,25,12.3,25.5,11.6,26.2"/>
                </g>
            </g>
            <g>
                <path class="st68" d="M40.8,9c3.7-2.2,6.8-0.2,6.8,4.3l0.1,19.2c0,4.6-3,10-6.8,12.2l-27,15.6c-3.7,2.2-6.8,0.2-6.8-4.3l0-7.6
                    L7.3,48C7.6,47,8.3,46,9.1,45.6c0.2-0.1,0.4-0.2,0.6-0.2l0.5-0.1l0.2,0.4c0.6,1.4,1.8,1.8,3.1,1.1c1.9-1.1,3.4-4.3,3.4-7.2
                    c0-2.9-1.6-4.3-3.5-3.2c-1,0.6-1.9,1.8-2.6,3.3L10.6,40c-0.5,1.1-1.2,1.9-1.8,2.3c-0.1,0-0.2,0.1-0.2,0.1
                    c-0.5,0.2-1.1,0.2-1.5-0.8l-0.1-0.2l0-4.7c0-4.5,3-10,6.8-12.2l8.9-5.1c0-0.2-0.2-0.5-0.4-0.9L21.9,18c-0.4-0.7-0.7-1.6-0.7-2.7
                    c0-3.7,2.7-8.4,6.1-10.3c3.4-2,6.1-0.5,6.1,3.2c0,1.5-0.5,3.3-1.3,4.9c-0.2,0.5-0.2,0.8-0.2,1L40.8,9z M45.5,33.8l-0.1-19.2
                    c0-3.2-2.1-4.6-4.7-3.1l-9.6,5.5l-0.2,0c-0.1,0-0.8,0-1.1-0.8c-0.3-0.7-0.1-1.8,0.4-3.2l0.1-0.3c0.6-1.1,0.9-2.2,0.9-3.2
                    c0-2.4-1.8-3.3-4-2c-2.2,1.3-4,4.3-4,6.6c0,0.5,0.1,1,0.3,1.4l0.4-0.2l0,0.9c0.8,1.1,1,2.3,0.7,3.4c-0.2,0.5-0.6,1.4-1.6,2.1
                    l-0.2,0.1L13.8,27c-2.6,1.5-4.6,5.3-4.6,8.5l0,3.5c1.1-2.2,2.5-4,4.1-4.9c3.1-1.8,5.6,0.2,5.6,4.4c0,4.2-2.5,9.1-5.5,10.8
                    c-1.6,0.9-3.1,0.8-4.2-0.1l0,5.5c0,3.2,2.1,4.6,4.7,3.1l27-15.6C43.5,40.8,45.5,37,45.5,33.8"/>
            </g>
        </g>
    </g>
</g>
<path d="M72.2,21.3C72.2,21.3,72.1,21.3,72.2,21.3L72.2,21.3C72.2,21.3,72.2,21.3,72.2,21.3z"/>
<path d="M72.6,21.3L72.6,21.3z"/>
<path d="M74.9,26.1C72.6,27.3,70,28,67.1,28c-3.3,0-6-1-8-3.1C57,22.8,56,20.1,56,16.7c0-3.5,1.1-6.3,3.4-8.5
    c2.2-2.2,5.1-3.3,8.6-3.3c2.5,0,4.6,0.4,6.3,1.1v3.8C72.5,8.6,70.4,8,68.1,8c-2.4,0-4.3,0.8-5.9,2.4c-1.5,1.6-2.3,3.6-2.3,6.1
    c0,2.6,0.7,4.6,2,6.1c1.3,1.5,3.1,2.2,5.3,2.2c1.5,0,2.9-0.3,4-0.9v-5.3h-4.7v-3.1h8.4V26.1z"/>
<path d="M91.6,27.6h-3.5v-2.5H88C86.9,27,85.3,28,83.2,28c-1.6,0-2.8-0.4-3.7-1.3c-0.9-0.9-1.3-2-1.3-3.4c0-3,1.7-4.8,5.2-5.3
    l4.8-0.7c0-2.3-1.1-3.4-3.2-3.4c-1.9,0-3.6,0.7-5.2,2v-3.2c1.7-1,3.6-1.5,5.8-1.5c4,0,6.1,2,6.1,6V27.6z M88.1,19.7l-3.4,0.5
    c-1,0.1-1.8,0.4-2.4,0.8c-0.5,0.4-0.8,1-0.8,1.9c0,0.7,0.2,1.2,0.7,1.7c0.5,0.4,1.1,0.6,1.9,0.6c1.1,0,2-0.4,2.7-1.2
    c0.7-0.8,1.1-1.8,1.1-2.9V19.7z"/>
<path d="M120,27.6h-3.6v-8.7c0-1.7-0.2-2.9-0.7-3.6c-0.5-0.8-1.3-1.1-2.4-1.1c-0.9,0-1.8,0.5-2.4,1.4c-0.7,0.9-1,2.1-1,3.4v8.7h-3.6
    v-9c0-3-1.1-4.5-3.2-4.5c-1,0-1.8,0.4-2.4,1.3c-0.6,0.9-0.9,2.1-0.9,3.5v8.7H96v-16h3.6v2.5h0.1c1.2-1.9,2.8-2.9,5-2.9
    c1.1,0,2.1,0.3,2.9,0.9s1.4,1.4,1.7,2.4c1.2-2.2,3-3.3,5.3-3.3c3.5,0,5.3,2.2,5.3,6.5V27.6z"/>
<path d="M137.9,20.6H127c0,1.5,0.5,2.6,1.4,3.4c0.9,0.8,2.1,1.2,3.6,1.2c1.7,0,3.3-0.5,4.7-1.5v2.9c-1.5,0.9-3.4,1.4-5.8,1.4
    c-2.4,0-4.2-0.7-5.5-2.2c-1.3-1.5-2-3.5-2-6.1c0-2.5,0.7-4.5,2.2-6.1c1.5-1.6,3.3-2.4,5.5-2.4s3.9,0.7,5.1,2.1
    c1.2,1.4,1.8,3.4,1.8,5.9V20.6z M134.4,18c0-1.3-0.3-2.3-0.9-3c-0.6-0.7-1.4-1.1-2.5-1.1c-1,0-1.9,0.4-2.6,1.1
    c-0.7,0.8-1.2,1.8-1.3,3H134.4z"/>
<path d="M73.3,54c-1.7,0.9-3.8,1.3-6.3,1.3c-3.2,0-5.9-1-7.8-3.1c-2-2.1-2.9-4.7-2.9-8.1c0-3.6,1.1-6.5,3.3-8.7
    c2.2-2.2,5-3.3,8.4-3.3c2.2,0,4,0.3,5.4,0.9v3.7c-1.5-0.9-3.2-1.3-5-1.3c-2.4,0-4.4,0.8-5.9,2.3c-1.5,1.6-2.3,3.6-2.3,6.2
    c0,2.5,0.7,4.4,2.1,5.9c1.4,1.5,3.3,2.2,5.5,2.2c2.1,0,3.9-0.5,5.5-1.5V54z"/>
<path d="M84.2,55.3c-2.5,0-4.4-0.7-5.9-2.2c-1.5-1.5-2.2-3.5-2.2-5.9c0-2.7,0.8-4.8,2.3-6.3c1.5-1.5,3.6-2.3,6.2-2.3
    c2.5,0,4.4,0.7,5.8,2.2c1.4,1.5,2.1,3.5,2.1,6.1c0,2.6-0.8,4.6-2.3,6.1C88.8,54.6,86.8,55.3,84.2,55.3z M84.4,41.5
    c-1.4,0-2.5,0.5-3.4,1.5c-0.8,1-1.2,2.4-1.2,4.1c0,1.7,0.4,3,1.2,4c0.8,1,1.9,1.4,3.3,1.4c1.4,0,2.5-0.5,3.3-1.4
    c0.8-0.9,1.1-2.3,1.1-4c0-1.8-0.4-3.1-1.1-4.1C86.9,42,85.8,41.5,84.4,41.5z"/>
<path d="M110.5,55h-3.6v-9c0-3-1.1-4.5-3.2-4.5c-1.1,0-2,0.4-2.7,1.2s-1.1,1.9-1.1,3.1V55h-3.6V39h3.6v2.7h0.1c1.2-2,2.9-3,5.2-3
    c1.7,0,3.1,0.6,4,1.7c0.9,1.1,1.4,2.8,1.4,4.9V55z"/>
<path d="M123.4,54.8c-0.7,0.4-1.6,0.5-2.8,0.5c-3.1,0-4.7-1.5-4.7-4.5v-9h-2.7V39h2.7v-3.7l3.6-1V39h3.8v2.8h-3.8v8
    c0,0.9,0.2,1.6,0.5,2s0.9,0.6,1.7,0.6c0.6,0,1.1-0.2,1.6-0.5V54.8z"/>
<path d="M135.8,42.4c-0.4-0.3-1.1-0.5-1.9-0.5c-1.1,0-2,0.5-2.7,1.5s-1.1,2.3-1.1,4V55h-3.6V39h3.6v3.3h0.1c0.4-1.1,0.9-2,1.6-2.6
    c0.7-0.6,1.6-0.9,2.5-0.9c0.7,0,1.2,0.1,1.5,0.3V42.4z"/>
<path d="M145.4,55.3c-2.5,0-4.4-0.7-5.9-2.2c-1.5-1.5-2.2-3.5-2.2-5.9c0-2.7,0.8-4.8,2.3-6.3c1.5-1.5,3.6-2.3,6.2-2.3
    c2.5,0,4.4,0.7,5.8,2.2c1.4,1.5,2.1,3.5,2.1,6.1c0,2.6-0.8,4.6-2.3,6.1C150,54.6,148,55.3,145.4,55.3z M145.6,41.5
    c-1.4,0-2.5,0.5-3.4,1.5c-0.8,1-1.2,2.4-1.2,4.1c0,1.7,0.4,3,1.2,4c0.8,1,1.9,1.4,3.3,1.4c1.4,0,2.5-0.5,3.3-1.4
    c0.8-0.9,1.1-2.3,1.1-4c0-1.8-0.4-3.1-1.1-4.1C148.1,42,147,41.5,145.6,41.5z"/>
<path d="M161.1,55h-3.6V31.3h3.6V55z"/>
</svg>
